<svg width="22" height="20" viewBox="0 0 22 20" fill="none" xmlns="http://www.w3.org/2000/svg">
<path d="M15.75 4.875C15.75 5.0975 15.684 5.31501 15.5604 5.50002C15.4368 5.68502 15.2611 5.82922 15.0555 5.91436C14.85 5.99951 14.6238 6.02179 14.4055 5.97838C14.1873 5.93498 13.9868 5.82783 13.8295 5.6705C13.6722 5.51316 13.565 5.31271 13.5216 5.09448C13.4782 4.87625 13.5005 4.65005 13.5856 4.44448C13.6708 4.23891 13.815 4.06321 14 3.9396C14.185 3.81598 14.4025 3.75 14.625 3.75C14.9234 3.75 15.2095 3.86853 15.4205 4.0795C15.6315 4.29048 15.75 4.57663 15.75 4.875ZM21.75 6C21.7501 6.12351 21.7197 6.24512 21.6614 6.35405C21.6032 6.46297 21.519 6.55583 21.4163 6.62438L19.5 7.90125V9.75C19.4973 12.335 18.4692 14.8134 16.6413 16.6413C14.8134 18.4692 12.335 19.4973 9.75 19.5H1.5C1.2174 19.5 0.940551 19.4202 0.701339 19.2697C0.462128 19.1192 0.270288 18.9043 0.147919 18.6495C0.02555 18.3948 -0.0223706 18.1107 0.00967758 17.8299C0.0417258 17.5491 0.152439 17.2831 0.329064 17.0625L0.338439 17.0513L8.25 7.55906V5.70844C8.25 2.57531 10.7616 0.0150002 13.8478 2.49448e-07H13.875C15.0699 -0.000355504 16.2339 0.379818 17.1982 1.08542C18.1626 1.79102 18.8772 2.78538 19.2384 3.92438L21.4163 5.37563C21.519 5.44417 21.6032 5.53703 21.6614 5.64595C21.7197 5.75488 21.7501 5.87649 21.75 6ZM19.6481 6L18.1781 5.01938C18.0248 4.91739 17.9143 4.76256 17.8678 4.58438C17.6375 3.70086 17.1205 2.91873 16.398 2.36056C15.6754 1.80239 14.788 1.49973 13.875 1.5H13.8544C11.5913 1.51125 9.75 3.39844 9.75 5.70844V7.83C9.7503 8.00568 9.68892 8.17589 9.57656 8.31094L1.5 18H4.02188L10.6725 10.02C10.7348 9.94215 10.8121 9.8775 10.8997 9.82985C10.9873 9.7822 11.0835 9.75251 11.1827 9.7425C11.282 9.73249 11.3822 9.74237 11.4775 9.77156C11.5729 9.80075 11.6615 9.84867 11.7381 9.9125C11.8147 9.97634 11.8778 10.0548 11.9238 10.1433C11.9697 10.2319 11.9975 10.3287 12.0055 10.4281C12.0136 10.5275 12.0018 10.6275 11.9707 10.7223C11.9397 10.817 11.89 10.9046 11.8247 10.98L5.97656 18H9.75C11.9373 17.9975 14.0343 17.1275 15.5809 15.5809C17.1275 14.0343 17.9975 11.9373 18 9.75V7.5C17.9999 7.37649 18.0303 7.25488 18.0886 7.14595C18.1468 7.03703 18.231 6.94417 18.3338 6.87562L19.6481 6Z" fill="black"/>
</svg>
