<svg width="24" height="18" viewBox="0 0 24 18" fill="none" xmlns="http://www.w3.org/2000/svg">
<path d="M15.3747 5.25C15.8939 5.25 16.4014 5.09605 16.8331 4.80761C17.2648 4.51917 17.6012 4.1092 17.7999 3.62955C17.9986 3.14989 18.0505 2.62209 17.9493 2.11289C17.848 1.60369 17.598 1.13596 17.2309 0.768846C16.8637 0.401733 16.396 0.151726 15.8868 0.0504398C15.3776 -0.0508464 14.8498 0.00113737 14.3702 0.199817C13.8905 0.398497 13.4805 0.73495 13.1921 1.16663C12.9037 1.59831 12.7497 2.10583 12.7497 2.625C12.7497 3.32119 13.0263 3.98887 13.5185 4.48116C14.0108 4.97344 14.6785 5.25 15.3747 5.25ZM15.3747 1.5C15.5972 1.5 15.8147 1.56598 15.9997 1.6896C16.1847 1.81321 16.3289 1.98892 16.4141 2.19448C16.4992 2.40005 16.5215 2.62625 16.4781 2.84448C16.4347 3.06271 16.3275 3.26316 16.1702 3.4205C16.0129 3.57783 15.8124 3.68498 15.5942 3.72838C15.3759 3.77179 15.1497 3.74951 14.9442 3.66437C14.7386 3.57922 14.5629 3.43502 14.4393 3.25002C14.3157 3.06501 14.2497 2.84751 14.2497 2.625C14.2497 2.32663 14.3682 2.04048 14.5792 1.82951C14.7902 1.61853 15.0763 1.5 15.3747 1.5ZM23.8947 16.1175L18.7797 7.485C18.6478 7.26012 18.4591 7.07385 18.2325 6.94486C18.006 6.81586 17.7495 6.74867 17.4888 6.75C17.2282 6.74864 16.9718 6.81583 16.7454 6.94484C16.519 7.07385 16.3305 7.26013 16.1988 7.485L13.7463 11.625L9.54251 4.49063C9.41005 4.2655 9.22109 4.07886 8.99434 3.94919C8.76759 3.81952 8.51091 3.75131 8.2497 3.75131C7.98849 3.75131 7.73181 3.81952 7.50506 3.94919C7.27831 4.07886 7.08935 4.2655 6.95689 4.49063L0.103761 16.1194C0.0366804 16.2333 0.000890373 16.3629 1.63993e-05 16.495C-0.000857574 16.6272 0.0332155 16.7573 0.0987844 16.872C0.164353 16.9868 0.259089 17.0822 0.373396 17.1486C0.487702 17.215 0.61752 17.2499 0.749699 17.25H23.2497C23.3821 17.25 23.5121 17.2149 23.6265 17.1484C23.741 17.0818 23.8358 16.9862 23.9013 16.8712C23.9668 16.7561 24.0007 16.6258 23.9995 16.4935C23.9984 16.3611 23.9622 16.2314 23.8947 16.1175ZM8.2497 5.25L10.4594 9H6.04001L8.2497 5.25ZM2.0622 15.75L5.15595 10.5H11.3434L13.1003 13.4813L14.4372 15.75H2.0622ZM16.1781 15.75L14.6163 13.0988L17.4888 8.25L21.9372 15.75H16.1781Z" fill="black"/>
</svg>
