<?xml version="1.0" encoding="UTF-8"?>
<svg id="Capa_2" data-name="Capa 2" xmlns="http://www.w3.org/2000/svg" viewBox="0 0 559.9 508.23">
  <g id="Capa_1-2" data-name="Capa 1">
    <path d="M557.82,350.91c-23.75-44.12-97.7-184.37-127.57-240.16-4.52-8.6-19.65-10.35-27.29-3.59l-.22.18c-9.11,6.4-19.92,29.44-33.08,20.08-1.69-1.37-2.78-3.06-3.9-4.87-2.2-3.6-6.16-10.11-11.23-18.43-19.8-32.22-50.7-83.62-60.11-98.42-3.62-5.27-11.87-7.03-17.7-4.66-4.97,1.96-6.54,4.99-9.4,9.8-17.56,28.76-80.53,132.18-91.33,149.86-9.6,15.86-21.49-4.37-30.1-12.51-7-7.39-16.35-7.39-23.32-1.24-3.08,2.68-4.21,6.06-6.41,9.55-22.27,38.97-68.31,118.85-92.11,160.44-9.57,16.67-16.77,29.21-19.52,34-4.3,7.33-5.84,16.85-3.28,25.62,1.46,5.59,6.95,10.93,10.59,13.02,21.28,10.17,223.97,102.6,248.19,113.91,12.36,6.09,24.49,6.16,36.98,1.05,43.12-21.19,97.23-48.38,144.34-71.75,51.5-25.68,95.29-47.39,106.72-53.13,10.59-5,14.71-19.05,9.76-28.76ZM263.62,470.68c33.79-31.54,26.72-80.06-5.7-111.62-79.27-77.16,7.22-170.84,7.22-170.84-41.04-57.5,19.37-110.5,19.37-110.5,0,0-9.34,34.21-1.21,52.13,5.85,12.89,20.65,28.65,30.65,37.84,38.92,35.76-2.76,83.89-16.64,100.3,17.56,15.87,40.21,40.57,50.89,61.84,34.95,69.58-89.12,145.09-84.58,140.86Z"/>
  </g>
</svg>